<?xml version="1.0" ?><!DOCTYPE svg  PUBLIC '-//W3C//DTD SVG 1.1//EN'  'http://www.w3.org/Graphics/SVG/1.1/DTD/svg11.dtd'><svg enable-background="new 0 0 91 91" height="91px" id="Layer_1" version="1.1" viewBox="0 0 91 91" width="91px" xml:space="preserve" xmlns="http://www.w3.org/2000/svg" xmlns:xlink="http://www.w3.org/1999/xlink"><g><path d="M86.08,2.642c-9.687,5.053-22.941,11.964-21.352,26.886c-5.35,5.897-11.047,11.439-16.943,16.484   c0.02-0.805,0.039-1.609,0.057-2.414c0.085-3.848,0.173-7.824,0.547-11.702c8.314-4.277,6.252-13.666,4.592-21.217l-0.156-0.707   c-0.139-0.646-0.742-1.17-1.346-1.17c-0.272,0-0.533,0.104-0.754,0.299c-8.748,7.787-10.586,16.633-5.181,24.908   c0.085,0.134,0.19,0.243,0.319,0.33c-0.266,3.127-0.365,6.325-0.461,9.417c-0.044,1.433-0.09,2.868-0.149,4.306   c-0.001,0.026,0.001,0.051,0.003,0.074c-3.458,2.846-7.089,5.59-10.81,8.168c2.093-4.802,2.401-10.068,2.372-14.004   c1.44-0.604,2.532-1.897,2.811-3.523c0.213-1.235-0.068-2.48-0.792-3.504c-0.724-1.024-1.803-1.707-3.039-1.919   c-2.605-0.448-4.99,1.31-5.422,3.83c-0.213,1.237,0.068,2.48,0.791,3.505s1.802,1.705,3.038,1.919   c0.226,0.039,0.448,0.051,0.67,0.057c-0.216,5.293-1.102,11.673-5.005,16.69c-4.141,2.656-8.296,5.047-12.36,7.109   c0.187-3.201,0.485-7.272,1.107-11.371c9.901-3.928,9.23-12.874,8.582-21.529c-0.191-2.545-0.388-5.178-0.298-7.606   c0.014-0.393-0.153-0.809-0.447-1.113c-0.464-0.482-1.143-0.528-1.636-0.091c-8.582,7.625-15.272,19.203-8.394,28.885   c-0.83,4.262-1.322,8.873-1.503,14.089c-1.549,0.663-9.551,3.548-9.636,3.577l-0.307,0.111L6.443,75l0.295-0.135   c2.077-0.939,4.442-1.959,4.861-2.055c3.797,1.027,6.95,3.889,9.065,6.766c-0.65,0.663-1.115,1.518-1.282,2.49   c-0.439,2.553,1.279,4.986,3.83,5.426c0.27,0.047,0.538,0.068,0.802,0.068c2.289,0,4.232-1.64,4.623-3.9   c0.213-1.235-0.068-2.479-0.792-3.504c-0.724-1.023-1.803-1.706-3.039-1.918c-0.769-0.135-1.51-0.056-2.197,0.16   c-1.417-2.203-3.355-4.209-5.584-5.717c3.415,0.778,6.992,1.488,10.538,1.824c3.232,3.605,7.089,5.357,11.787,5.357   c5.828,0,12.114-2.773,17.66-5.221c0.725-0.318,1.439-0.635,2.146-0.941c0.473-0.205,0.771-0.619,0.795-1.109   c0.026-0.514-0.25-0.997-0.719-1.258c-6.826-3.831-12.775-5.773-17.686-5.773c-5.213,0-9.311,2.177-12.182,6.471   c-4.522-0.348-9.003-1.217-12.89-2.067c7.222-3.507,14.345-7.755,21.186-12.637c5.348,0.688,10.284,2.38,15.051,5.134   c-0.033,0.127-0.082,0.247-0.104,0.379c-0.41,2.383,1.194,4.653,3.575,5.063c0.25,0.042,0.5,0.063,0.746,0.063   c2.137,0,3.951-1.529,4.314-3.638c0.199-1.153-0.063-2.315-0.738-3.271c-0.275-0.39-0.616-0.71-0.989-0.986   c1.2,0.483,2.45,0.742,3.752,0.742c7.464,0,14.896-7.793,19.836-13.653c0.304-0.361,0.364-0.927,0.151-1.406   c-0.188-0.42-0.555-0.68-0.983-0.692c-1.214-0.036-2.43-0.11-3.718-0.188c-1.805-0.11-3.672-0.222-5.512-0.222   c-2.771,0-4.99,0.256-6.982,0.81c-5.278,1.457-7.645,4.545-10.361,8.748c-1.326,0.084-2.722,0.127-4.149,0.127   c-2.741,0-5.685-0.15-9.207-0.475c3.835-2.989,9.728-8.096,12.322-10.345c0.657-0.57,1.071-0.928,1.11-0.962   c4.496-2.665,9.773-3.193,14.879-3.704c1.139-0.114,2.305-0.236,3.457-0.376c0.122,0.289,0.27,0.568,0.453,0.83   c0.676,0.957,1.684,1.593,2.837,1.792c0.251,0.042,0.501,0.063,0.747,0.063c2.137,0,3.951-1.53,4.314-3.639   c0.41-2.381-1.193-4.652-3.574-5.062c-2.432-0.415-4.656,1.223-5.062,3.574c-0.026,0.153-0.023,0.304-0.034,0.457   c-0.521,0.03-1.043,0.061-1.57,0.089c-4.125,0.219-8.379,0.444-12.331,1.645c2.103-2.152,4.024-4.218,5.843-6.283   c0.225,0.169,0.504,0.248,0.822,0.214c12.32-1.204,16.463-13.722,19.792-23.782c0.466-1.405,0.919-2.777,1.38-4.079   c0.143-0.402,0.063-0.904-0.203-1.281C87.18,2.526,86.598,2.371,86.08,2.642z M72.936,23.205c0.252-0.328,0.294-0.72,0.118-1.076   c-0.183-0.37-0.573-0.619-0.97-0.619c-0.299,0-0.574,0.137-0.777,0.386c-1.459,1.783-3.028,3.629-4.671,5.494   C65.783,17.381,74.469,11.343,84.23,6.367c-0.369,1.007-0.729,2.032-1.092,3.063c-2.996,8.525-6.09,17.33-15.158,19.913   C69.719,27.287,71.384,25.226,72.936,23.205z M70.465,52.171c-0.133-0.605-0.738-0.954-1.335-0.737   c-3.247,1.219-6.631,2.033-10.321,2.479c2.535-3.416,5.189-5.764,9.492-6.243c1.799-0.198,3.742-0.296,5.936-0.296   c1.723,0,3.469,0.059,5.129,0.13c-4.797,5.39-10.42,10.735-16.133,10.735c-1.793,0-3.521-0.543-5.147-1.619   c4.304-0.553,8.17-1.635,11.797-3.297C70.342,53.111,70.571,52.659,70.465,52.171z M41.005,72.62   c-0.065-0.495-0.472-0.993-1.104-0.905c-2.045,0.324-4.147,0.482-6.425,0.482c-0.458,0-0.916-0.007-1.374-0.02   c2.748-2.764,5.962-4.108,9.804-4.108c3.878,0,8.291,1.368,13.847,4.298l-0.432,0.191c-5.428,2.404-10.553,4.676-15.686,4.676   c-3.065,0-5.858-0.826-8.508-2.52c3.322,0.053,6.374-0.289,9.225-1.063C40.808,73.529,41.07,73.115,41.005,72.62z M21.411,43.53   c0.112-0.321,0.069-0.647-0.122-0.916c-0.195-0.275-0.52-0.446-0.848-0.446c-0.374,0-0.686,0.221-0.835,0.588   c-0.949,2.323-1.741,4.764-2.415,7.44c-3.837-8.901,3.249-17.582,7.103-21.42c0.042,1.658,0.159,3.311,0.274,4.915   c0.507,7.117,0.987,13.85-5.482,18.684C19.692,49.158,20.454,46.258,21.411,43.53z M49.751,23.536   c0.065-0.265,0.009-0.528-0.157-0.741c-0.193-0.245-0.517-0.397-0.844-0.397c-0.401,0-0.723,0.228-0.836,0.597   c-0.686,2.202-1.211,4.605-1.597,7.322c-2.677-5.806-1.067-12.319,4.402-17.688c1.229,5.719,2.329,11.572-1.963,16.13   C49.025,26.875,49.353,25.159,49.751,23.536z M33.258,39.212c-0.329-0.465-0.456-1.03-0.359-1.593   c0.177-1.026,1.06-1.772,2.098-1.772c0.121,0,0.244,0.01,0.366,0.032c0.562,0.096,1.052,0.406,1.381,0.871   c0.329,0.467,0.457,1.032,0.36,1.593c-0.197,1.147-1.288,1.956-2.466,1.741C34.077,39.987,33.587,39.678,33.258,39.212z    M24.006,80.73c0.121,0,0.243,0.01,0.366,0.031c0.562,0.098,1.053,0.406,1.382,0.872c0.328,0.466,0.457,1.03,0.36,1.592   c-0.198,1.147-1.275,1.956-2.466,1.741c-1.16-0.198-1.941-1.305-1.742-2.465c0.04-0.232,0.121-0.447,0.227-0.646   c0.109,0.196,0.215,0.39,0.312,0.581c0.183,0.357,0.522,0.57,0.909,0.57c0.329,0,0.644-0.158,0.824-0.414   c0.179-0.254,0.213-0.572,0.098-0.895c-0.116-0.322-0.256-0.64-0.396-0.957C23.921,80.739,23.962,80.73,24.006,80.73z    M58.72,63.895c-0.169,0.979-1.095,1.662-2.104,1.484c-0.479-0.082-0.898-0.347-1.179-0.744c-0.28-0.396-0.39-0.881-0.308-1.36   c0.152-0.876,0.905-1.511,1.792-1.511c0.103,0,0.208,0.008,0.313,0.026c0.479,0.081,0.898,0.347,1.179,0.743   C58.693,62.932,58.803,63.414,58.72,63.895z M57.668,59.266C56.1,59,54.625,59.593,53.662,60.673   c-2.485-1.595-5.055-2.89-7.687-3.831c3.2,0.248,6.219,0.273,9.075,0.078c0.967,1.027,1.988,1.844,3.056,2.467   C57.961,59.346,57.819,59.291,57.668,59.266z M76.348,36.468c0.152-0.875,0.905-1.511,1.791-1.511c0.104,0,0.209,0.009,0.313,0.027   c0.989,0.169,1.655,1.113,1.485,2.103c-0.168,0.979-1.096,1.664-2.104,1.486c-0.479-0.082-0.898-0.347-1.178-0.745   C76.375,37.43,76.266,36.948,76.348,36.468z"/></g></svg>